# xmcd CD database file
#
# Track frame offsets:
#	150
#	23733
#	38544
#	55128
#	65759
#	75047
#	85696
#	95987
#	110809
#	121510
#	133217
#	150381
#	165534
#	177806
#
# Disc length: 2925 seconds
#
# Revision: 0
# Processed by: cddbd v1.5.2PL0 Copyright (c) Steve Scherf et al.
# Submitted via: CDex 1.50
#
DISCID=a40b6b0e
DTITLE=Creedence Clearwater Revival - The Concert
DYEAR=1980
DGENRE=Country-rock
TTITLE0=Born On The Bayou
TTITLE1=Green River
TTITLE2=Tombstone Shadow
TTITLE3=Don't Look Now (It Ain't You Or Me)
TTITLE4=Travelin' Band
TTITLE5=Who'Il Stop The Rain
TTITLE6=Bad Moon Rising
TTITLE7=Proud Mary
TTITLE8=Fotunate Son
TTITLE9=Commotion
TTITLE10=The Midnight Special
TTITLE11=The Night Time Is The Right Time
TTITLE12=Down On The Corner
TTITLE13=Keep On Chooglin'
EXTD=YEAR: 1980
EXTT0=
EXTT1=
EXTT2=
EXTT3=
EXTT4=
EXTT5=
EXTT6=
EXTT7=
EXTT8=
EXTT9=
EXTT10=
EXTT11=
EXTT12=
EXTT13=
PLAYORDER=
